<svg viewBox="0 0 512 512" xml:space="preserve" xmlns="http://www.w3.org/2000/svg"><path d="M441.7 392.1 281 484.9c-15.5 8.9-34.5 8.9-50 0L70.3 392.1c-15.5-8.9-25-25.4-25-43.3V163.2c0-17.9 9.5-34.4 25-43.3L231 27.1c15.5-8.9 34.5-8.9 50 0l160.7 92.8c15.5 8.9 25 25.4 25 43.3v185.6c0 17.8-9.5 34.4-25 43.3z" fill="#703dff" class="fill-37475e"></path><path d="M330 335.3c.7 1.1.5 2.1.5 3 0 12.4 0 24.8.1 37.2 0 1.8-.3 2.9-2.3 3.8-7.9 3.8-15.9 7.2-24.4 9.5-5.7 1.6-11.5 2.5-17.3 3.3-4.8.6-9.6.6-14.4.5-6.4-.2-12.8-1.1-19.1-2.7-6.8-1.7-13.3-4.1-19.1-7.9-10.5-6.8-18.8-15.6-23-27.9-1.9-5.7-2.1-11.4-2.3-17.1-.8-30.5-.4-61-.6-91.6 0-3.5-.2-7 0-10.5.1-2.1-.5-2.8-2.7-2.8-6.9.1-13.8-.1-20.7.1-2.4.1-3.2-.5-3.2-3.1.2-11 .1-22.1.1-33.1 0-2.3.2-3.5 3-4.5 5.5-2 10.6-5.1 15.2-8.7 10.2-7.9 17.9-17.7 22.8-29.6 4-9.8 6.3-20 7.6-30.5.2-1.5.5-2.5 2.3-2.6 5.3-.3 10.5-1.2 15.8-.5 5 .6 10 .5 15 .5 2.3 0 2.1 1.3 2.1 2.8.1 16.8.1 33.6.2 50.4 0 4.3.1 8.6-.1 12.9-.1 2.1.5 2.7 2.6 2.7 17.3-.1 34.6 0 52-.1 2.6 0 3.2.9 3.2 3.2-.1 12.4-.1 24.8 0 37.2 0 2.3-.6 3.1-3.1 3.1-17.2-.1-34.5 0-51.7-.1-2.2 0-3.1.3-3.1 2.9.2 26 .2 52 .2 78.1 0 5.5.3 11 1.3 16.3 1.5 8.4 7.2 13.5 15 16.2 10.7 3.8 21.2 2.2 31.6-1.3 5.9-2.1 11.3-5.4 16.5-9.1z" fill="#ffffff" class="fill-ffffff"></path></svg>